<svg data-name="Layer 0 Image" xmlns="http://www.w3.org/2000/svg" width="800" height="600"><path d="M357.039 338.164a25.767 25.767 0 002.474-4.333c1.905-5.574 6.845-7.717 11.587-9.057 3.3-.931 6.8-2.043 10.594-1.776 8.61.607 14.656 4.648 18.965 11.946a37.025 37.025 0 014.742 10.675c.572 2.592 1.275 5.6.512 7.964-2.962 9.184-8.011 16.9-17.566 20.544-2.633 1-5.37 1.742-8.072 2.556a2.1 2.1 0 01-1.388-.006c-6.927-3.366-13.626-7.2-17.648-14.026-1.727-2.93-3.327-6.318-2.9-10 .514-4.468-1.394-9.168 1.274-13.425zm13.781 21.484c3.527 0 6.626.538 9.449-.117 5.221-1.211 12.246-11.853 11.848-17.255-.061-.827-.33-2.031-.9-2.361-2.619-1.506-5.381-2.763-8.092-4.109-1.608 2.769-6.586-.335-7.265 4.25-.28 1.891-4.6.681-3.448 4.036-2.794 4.957-.749 10.239-1.592 15.556zM151.032 420.939c-2.24-.51-3.545-1.445-2.74-4.1a7.181 7.181 0 001.437-.67c4.565-3.3 10.179-3.794 15.32-5.429a9.7 9.7 0 017.676 1.363c5.836 4.47 12.31 8.356 15.069 16.03 2.28 6.337 1.362 14.471-2.665 19.654-2.34 3.01-5.614 4.9-8.019 7.959-3.946-.639-8.1.964-12.029-1.411-1.833-1.108-9.812-5.328-11.372-6.494-3.639-2.718-5.058-6.693-6.419-10.725-.28-.83-.728-1.89-.447-2.578 1.805-4.414.521-9.717 4.189-13.599zM513.268 280.3l3.035 1.054-2.012 6.353-3.771.438 1.34 1.8c-2.389 2.94-5.137 5.2-9.372 5.011a9.438 9.438 0 00-3.2.721 11.34 11.34 0 01-8.563-.146c-.982-.442-2.842-.946-3.158-.538-2.644 3.414-4.819-.977-7.408-.386-1.087.248-2.12-2.6-4.445-2.675-1.245-.043-2.346-1.875-3.67-2.621-1.544-.87-2.15-3.2-4.444-2.861-1.075-3.477-4.551-5.083-6.3-7.968-3.886-6.42-3.89-15.652-.7-21.863 2.829-5.505 8.156-7.116 13.051-3.414 2.377 1.8 4.177 3.227 6.881 1.059.932 1.475 1.8.88 2.474-.176 1.077-1.683 2.722-1.783 4.323-1.447 5.574 1.171 11.235 2.751 15.719 6.111 3.945 2.957 6.771 7.407 10.092 11.2-.269 3.359 4.004 6.537.128 10.348zm-43.757-4.607c5.6 5.345 14.96 8.326 22.654 8.035a12.317 12.317 0 008.914-3.958c1.413-1.46 2.866-2.882 4.336-4.357a11.644 11.644 0 01-1.821-2.578c-1.09-3.628-3.076-5.9-7.179-6.215-1.862-.141-3.624-1.355-5.482-1.912-1.217-.365-3.354-.979-3.654-.531-1.7 2.547-2.621-1.448-4.849.489l-5.581 5.245-4.33-3.407c-4.414 2.204-2.182 5.929-3.008 9.186zM564.632 440.711c2.119-1.106 4.5-2.936 7.976-1.52l-1.32 1.809c1.375.354 3.6.429 3.769 1.052 1.151 4.327 6.036 5.552 7.494 9.561 2.467 6.783 4.631 13.547 1.01 20.572-.4.781-.816.959-.237 2.064 1.6 3.047.112 5.24-2.683 6.821-1.944 1.1-.869 2.2.262 3.294l-7.263 9.327h-7.75c-1.433-1.539-3.192-3.4-4.918-5.29-1.552-1.7-3.584-2.761-4.985-4.8a18.438 18.438 0 01-2.714-14.776c.828-4 2.795-7.759 3.779-11.743.643-2.6 1.279-4.692 3.879-6.114 1.042-.57 1.761-2.663 1.731-4.042-.045-2.02 1.361-2.778 2.242-4.056.287-.418-.146-1.33-.272-2.159zM623.04 244.14l-2.97 4.331c-.632-.589-1.193-1.5-1.607-1.436-5.023.752-6.683-4.078-10.063-6.01-.381-.218-.643-1.593-.413-1.79 3.516-3-.232-5.215-.7-7.809-.557.5-1.052.945-1.55 1.387-.167-.168-.484-.341-.476-.5.163-3.074-1.509-6.421 1.582-9.083.7-.606.57-2.088 1.091-3.016 1.335-2.38 1.695-5.52 4.141-7.013 2.512-1.534 1.529-4.66 4.032-6.463 4.248-3.06 10.886-4.611 15.863-2.751 7.226 2.7 11.827 8.2 14.521 14.85a32.1 32.1 0 012.184 17.29c-.587 3.419-3.6 5.769-6.263 7.825-.8.616-2.8-.332-4.681-.63a6.644 6.644 0 00.629 2.29c.745 1.152 1.045 2.233-.394 2.7-1.464.472-2-.54-1.91-1.983.015-.236-.644-.515-1.376-1.061l-3.731 3.114-.86-2.984-5.967 5.524c-.457-2.88-.754-4.732-1.082-6.782zm13.014-24.728c-.331-.331-.811-.6-.969-1-1.153-2.926-4.244-2.439-6.394-3.226-1.152-.421-3.185 1.491-4.788 2.409-.711.407-2.135 2.744-3.081 4.438-.736 1.316-1.541 3.463-2.53 3.592-2.228.29-1.77 1.53-1.974 2.858a10.156 10.156 0 01-1.1 2.527c4.935 5.019 9.583 2.916 14.67.553 5.551-2.58 6.518-6.887 6.166-12.151zM267.869 316.864l2.313 1.955c.449-.9.782-2.472 1.373-2.575 1.5-.263 3.517-.422 4.625.365 3.326 2.365 6.827 4.8 9.292 7.967a31.122 31.122 0 014.945 10.538 10.139 10.139 0 01-.991 7.2c-2.573 5.31-5.155 10.072-10.527 13.194-2.377 1.381-5.044 1.442-7.3 2.837a17.963 17.963 0 01-3.006 1.192l-1.378-2.444c-.8 1.137-1.332 1-2.55.162-2.187-1.511-6.439-5.38-8.285-6.887-5.931-4.845-2.513-10.871-2.257-16.395.064-1.388 2.279-2.675 3.585-4.1 4.848 2.606 7.354 6.769 9.05 11.368 4.752-.592 5.524-5.029 8.135-7.5.577-.546.185-2.117.295-4.365l-5.062 5.057c-3.575-.253-3.145-4.563-6.156-4.824-.05-2.793-.529-5.673.016-8.345.314-1.516 2.301-2.691 3.883-4.4zM537.258 133.587l5.26-5.261h8.738c.91-3.813-1.906-2.269-3.726-2.774.2-.491.25-1.079.571-1.355 2.226-1.913-1.071-2.658-.755-4.6 1.489-3.545 5.648-4.191 8.771-6.122.885-.547 2.609-.247 3.737.2 5.72 2.261 7.793 7.393 10.1 12.57 1.482 3.327.1 7.258 2.7 10.167-1.03 3.8-1.429 7.951-3.263 11.316-1.949 3.576-6.111 5.523-10.028 5.914-2.168.216-4.061 2.764-6.189 1.112-1.807-1.4-4.353-.613-6-2.828-1.172-1.581-3.773-1.688-4.479-4.448-.348-1.363-2.952-1.579-4.129-3.744-1.894-3.492-.488-6.825-1.308-10.147zM506.035 358.977l-2.475-4.806c.8-4.213 5.594-3.047 7.155-6.321 1.532-3.212 6.207-1.843 8.712-5.084l-2.935-1.97c.143-.179.335-.678.609-.728 4.748-.864 8.212 1.675 11.443 4.558 2.692 2.4 4.234 5.682 6.254 8.583 1.138 1.634-.842 3.134.874 4.175a3.8 3.8 0 011.721 4.19c-.317 1.91 1.489 3.968 1.165 4.961-.764 2.336-.825 4.783-1.608 7.05a27.019 27.019 0 01-6.925 11.193c-1.9 1.781-4.579 2.381-7.934 1.794-8.092-1.416-8.185-1.33-11.834-5.34a21.588 21.588 0 01-5.483-11.121c-.438-2.492-1.915-4.691-.161-7.158-2.353-2.26 1.205-2.204 1.422-3.976zm6.446-4.525c.877 3.5 1.645 6.433 2.332 9.391.154.664.324 1.72-.025 2.043-3.1 2.874-.22 5.239.534 7.777 5.429.088 5.279-.252 8.062-4.217 3.313-4.718 2.745-9.851 2.652-14.986a4.467 4.467 0 00-1.706-2.732c-1.59-1.344-4.207.733-5.654-1.5q-.74 1.128-1.477 2.257c-2.742-1.836-3.434 1.1-4.718 1.967zM317 167.741c6.419 3.615 7.894 6.628 4.371 12.135-1.819 2.842.43 6.043-2.137 8.375-.38.345.618 2.226 1 3.389 1.053 3.2 2.091 3.484 5.571 2.568 6.644-1.75 9.792-6.448 11.391-12.82-2.475-.7-4.97-1.374-7.443-2.118-3.016-.908-1.916-4.3-3.155-5.854l4.547-4.545c4.3-2.4 6.965 2.292 10.883 3.356 2.875 4.641 6.887 8.667 6.471 14.883-.525 7.851-3.907 14.391-12.481 17.535-7.156 2.624-12.818 1.523-18.958-3.933-3.743-3.325-6.791-6.752-6.927-12.656-.178-7.796 1.313-14.647 6.867-20.315zM307.16 456.77c-6.116 1.8-9.687-2.327-13.8-4.784-3.773-2.255-4.264-6.7-5.38-10.356-1.031-3.38 1.051-6.9 2.274-10.168a66.535 66.535 0 014.131-7.869l-2.434-.883 3.092-3.256-4.86-.879c1.366-1.016 2.331-2.329 3.2-2.27 2.443.165 4.831-.679 7.4.723 6.532 3.564 9.876 9.535 12.284 15.936 3.382 8.987 1.574 17.158-5.907 23.806zM385.458 490.221a6999.75 6999.75 0 01-1.915 3.847 20.28 20.28 0 015.814 17.17c-.175 1.577-.134 2.937-1.315 4.416-2.239 2.806-2.545 6.9-6.889 8.386-1.881.642-3.936 1.173-5.2.523-3.527-1.812-7.582-3.211-9.768-6.837a14.169 14.169 0 01-2.337-6.073c-.762-7.83 2.418-14.326 6.4-20.556a9.4 9.4 0 014.216-3.231c2.077-.939 3.363-1.7 5.441-.147 1.511 1.133 3.511 1.617 5.553 2.502zM639.67 328.7c-2.785-2.143-4.417-6.012-8.759-5.851-1.087-1.883-2.809-3.663-3.136-5.67-.794-4.87.348-9.215 5.378-11.6.6-.282 1-.961 1.649-1.607l-1.739-.591 4.242-4.241-.976-1.154a6.776 6.776 0 011.931-.229c2.83.488 6.089-1.439 8.492 1.452A27.554 27.554 0 01653.1 312c1.212 6.562-5.124 13.818-9.937 16.156-1.23.596-2.753-1.809-3.493.544zM452.788 414.535a31.916 31.916 0 00.02 3.82c.736 4.784-3.257 6.478-6.034 8.585-2.758 2.093-5.4-.984-7.983-1.746-2.411-.711-4.4-3.028-6.433-4.8-3.423-2.978-4.7-10.056-2.535-14.3.493-.964-.033-2.607 2.257-2.821 1.366-.127 2.658-2.308 3.761-3.737 2.878-3.729 5.4-4.157 8.484-.9 2.015 2.13 4.352 3.871 5.789 6.725 1.664 3.309 3.534 6.309 2.674 9.174zM375.956 254.017c3.048 3.275 6.447 6.107 8.047 10.715 1.981 5.708.9 8.824-3.954 12.152-5.531 3.792-9.234 3.135-14.063-1.789-.656-.669-1.324-1.326-1.853-1.855-.8-2.469 1.035-5.32-1.6-7.253-1.459-6.509 2.943-11.842 9.885-11.967 1.175-.02 2.346-.003 3.538-.003zM441.506 181.545l2.821-2.2c-.909-.763-1.817-1.527-2.7-2.272.362-.4.8-.89 1.412-1.573l-4.73-1.033c2-5.364 6.908-5.754 10.757-7.506.751-.342 2.372.648 3.3 1.387a28.454 28.454 0 018.429 11.208c.252.579.589 1.633.35 1.837-3.332 2.841 1.065 8.341-3.3 10.243-.855.372-2.776-1.822-5.075-1.982l2.925 3.21c-1.713 1.136-3.329 2.314-5.06 3.29a3.825 3.825 0 01-2.074.025c-.413-.046-1.165-.359-1.15-.461.57-3.853-4.021-.989-4.535-3.518-.254-1.251-1.193-2.4-1.31-3.636-.215-2.318-.06-4.67-.06-7.019zM451.515 78.243v-3.1h6.28c3.185 4.781 7.543 9.315 6 16.52l-4.042.252V86.1c-1.132.215-2 .123-2.32.5-.53.622-.584 1.631-1.062 2.323-.879 1.277-1.358.988-2.536-.905a39.911 39.911 0 00-2.99-3.735l3.422-1.576c-2.968-1.465-2.915-1.414-.47-3.954.423-.44.182-1.519.3-2.891z"/></svg>