<svg xmlns="http://www.w3.org/2000/svg" xmlns:xlink="http://www.w3.org/1999/xlink" width="80" height="80" viewBox="0 0 60 60" version="1.2"><defs><symbol overflow="visible" id="a"><path d="M7.531-3c0 .617-.156 1.164-.468 1.64-.305.47-.75.84-1.344 1.11-.586.258-1.274.39-2.063.39C3 .14 2.446.095 2 0A6.032 6.032 0 01.61-.484v-2.391c.507.262 1.038.469 1.593.625.55.148 1.055.219 1.516.219.394 0 .68-.067.86-.203a.665.665 0 00.28-.547c0-.133-.039-.25-.109-.344a1.344 1.344 0 00-.36-.313c-.167-.101-.605-.316-1.312-.64-.648-.29-1.133-.57-1.453-.844a2.688 2.688 0 01-.719-.953C.75-6.227.672-6.648.672-7.141c0-.906.332-1.613 1-2.125.664-.507 1.578-.765 2.734-.765 1.02 0 2.063.234 3.125.703L6.72-7.266c-.93-.414-1.727-.625-2.39-.625-.356 0-.61.063-.766.188a.527.527 0 00-.235.437c0 .2.098.375.297.532.207.148.754.421 1.64.828.852.386 1.442.804 1.766 1.25.332.437.5.992.5 1.656zm0 0"/></symbol><symbol overflow="visible" id="b"><path d="M6.625-9.89h2.984L6.375 0h-3.14L0-9.89h3l1.344 5.015c.281 1.117.437 1.89.468 2.328.032-.32.094-.719.188-1.187.094-.477.176-.852.25-1.125zm0 0"/></symbol><symbol overflow="visible" id="c"><path d="M5.047-5.797h4.266v5.344C8.155-.055 6.878.14 5.483.14c-1.523 0-2.699-.442-3.53-1.329-.837-.882-1.25-2.144-1.25-3.78 0-1.602.452-2.848 1.359-3.735.914-.883 2.195-1.328 3.843-1.328.614 0 1.196.058 1.75.172a6.79 6.79 0 011.453.453l-.843 2.094a5.265 5.265 0 00-2.344-.532c-.781 0-1.387.258-1.813.766-.43.5-.64 1.226-.64 2.172 0 .93.191 1.636.578 2.125.383.48.941.719 1.672.719.394 0 .758-.036 1.093-.11v-1.562H5.048zm0 0"/></symbol></defs><path d="M30 1.906c-.922 0-1.84.043-2.754.133a27.98 27.98 0 00-2.726.406c-.903.18-1.793.403-2.676.668a28.85 28.85 0 00-2.594.93c-.852.352-1.684.746-2.492 1.18a28.454 28.454 0 00-4.582 3.059 29.6 29.6 0 00-2.043 1.85 29.6 29.6 0 00-1.852 2.044 28.454 28.454 0 00-3.058 4.582c-.434.808-.828 1.64-1.18 2.492a28.85 28.85 0 00-.93 2.594 28.792 28.792 0 00-.668 2.676 27.98 27.98 0 00-.406 2.726c-.09.914-.133 1.832-.133 2.754 0 .922.043 1.84.133 2.754.09.914.227 1.824.406 2.726.18.903.403 1.793.668 2.676.27.88.578 1.746.93 2.594.352.852.746 1.684 1.18 2.492a28.454 28.454 0 003.059 4.582 29.6 29.6 0 001.85 2.043 29.6 29.6 0 002.044 1.852 28.454 28.454 0 004.582 3.058c.808.434 1.64.828 2.492 1.18.848.352 1.715.66 2.594.93.883.265 1.773.488 2.676.668.902.18 1.812.316 2.726.406.914.09 1.832.133 2.754.133.922 0 1.84-.043 2.754-.133a27.98 27.98 0 002.726-.406c.903-.18 1.793-.403 2.676-.668a28.85 28.85 0 002.594-.93 27.406 27.406 0 002.492-1.18 28.454 28.454 0 004.582-3.059 29.6 29.6 0 002.043-1.85 29.6 29.6 0 001.852-2.044 28.454 28.454 0 003.058-4.582c.434-.808.828-1.64 1.18-2.492.352-.848.66-1.715.93-2.594.265-.883.488-1.773.668-2.676.18-.902.316-1.812.406-2.726.09-.914.133-1.832.133-2.754 0-.922-.043-1.84-.133-2.754a27.98 27.98 0 00-.406-2.726 28.792 28.792 0 00-.668-2.676 28.85 28.85 0 00-.93-2.594 27.406 27.406 0 00-1.18-2.492 28.454 28.454 0 00-3.059-4.582 29.6 29.6 0 00-1.85-2.043 29.6 29.6 0 00-2.044-1.852 28.454 28.454 0 00-4.582-3.058 27.406 27.406 0 00-2.492-1.18 28.85 28.85 0 00-2.594-.93 28.792 28.792 0 00-2.676-.668 27.98 27.98 0 00-2.726-.406A28.135 28.135 0 0030 1.906zm0 0"/><path d="M39.074 22.54h14.957v14.952H39.074zm0 0" fill="#5e17eb"/><g fill="#fff"><use xlink:href="#a" x="6.891" y="35.889"/><use xlink:href="#b" x="14.888" y="35.889"/><use xlink:href="#c" x="24.503" y="35.889"/></g></svg>